<svg xmlns="http://www.w3.org/2000/svg" viewBox="0 0 400 400"><defs><linearGradient id="j" x2="1" y2="1"><stop stop-color="#84846a"/><stop offset="1" stop-color="#4d5844"/></linearGradient></defs><path fill="#dcd8c9" d="M0 0h400v400H0z"/><ellipse cx="202" cy="346" rx="107" ry="12" fill="#333" opacity=".09"/><path d="m153 59-51 30-62 158 47 18 42-99-4 158h153l-5-158 42 99 46-18-62-158-51-30Z" fill="url(#j)"/><path d="m153 59 47 43 48-43-21-12h-53Z" fill="#394836"/><path d="m151 59 14 58 35-15-15-38m64-5-14 58-35-15 15-38" fill="#a1a087"/><path d="M200 104v219" stroke="#c7c4a2" stroke-width="3"/><g stroke="#334131" opacity=".6" fill="none"><path d="M138 147h46v54h-46Zm78 0h46v54h-46ZM135 240h49v59h-49Zm81 0h49v59h-49Z"/><path d="M139 155h44m34 0h44m-126 94h48m34 0h47"/></g><g fill="#c0b999"><circle cx="205" cy="129" r="2"/><circle cx="205" cy="197" r="2"/><circle cx="205" cy="266" r="2"/></g></svg>
