<svg xmlns="http://www.w3.org/2000/svg" viewBox="0 0 400 400"><defs><linearGradient id="b" x2="1"><stop stop-color="#344727"/><stop offset=".5" stop-color="#768349"/><stop offset="1" stop-color="#3c512a"/></linearGradient></defs><path fill="#e5dfce" d="M0 0h400v400H0z"/><ellipse cx="200" cy="350" rx="62" ry="10" fill="#333" opacity=".1"/><rect x="174" y="56" width="52" height="87" rx="6" fill="#445335"/><rect x="169" y="47" width="62" height="38" rx="7" fill="#ae965c"/><path d="M173 122q-30 19-30 45v160q0 19 19 19h77q19 0 19-19V167q0-26-31-45Z" fill="url(#b)"/><rect x="146" y="189" width="109" height="111" rx="3" fill="#efead6"/><path d="M202 211v54m0-41q-28-18-27 0 3 12 27 12m0 5q29-19 28-1-5 12-28 12" fill="none" stroke="#73814c" stroke-width="4"/><path d="M165 280h72" stroke="#b4a782" stroke-width="2"/></svg>
